<svg xmlns="http://www.w3.org/2000/svg" width="90" height="90" viewBox="0 0 90 90" fill="none"><path d="M44.8594 87.1875C68.1589 87.1875 87.0469 68.2995 87.0469 45C87.0469 21.7005 68.1589 2.8125 44.8594 2.8125C21.5599 2.8125 2.67188 21.7005 2.67188 45C2.67188 68.2995 21.5599 87.1875 44.8594 87.1875Z" fill="#ED4C5C"></path><path d="M42.0468 39.0938C43.0312 36.5625 45.4218 36.1406 46.6874 32.9063C47.2499 31.5 46.2656 28.6875 46.8281 27.2813C48.0937 24.0469 51.3281 24.6094 51.3281 24.6094C45.5624 22.5 39.0937 25.4531 36.9843 31.0781C34.8749 36.7031 37.8281 43.0313 43.5937 45C42.0468 43.3125 41.2031 41.3438 42.0468 39.0938Z" fill="white"></path><path d="M42.6094 31.2188C43.3084 31.2188 43.875 30.6521 43.875 29.9531C43.875 29.2541 43.3084 28.6875 42.6094 28.6875C41.9104 28.6875 41.3438 29.2541 41.3438 29.9531C41.3438 30.6521 41.9104 31.2188 42.6094 31.2188Z" fill="#ED4C5C"></path><path d="M37.2657 44.7187C35.1563 43.0312 35.4375 40.6406 32.625 38.5312C31.3594 37.5469 28.4063 37.6875 27.1407 36.7031C24.3282 34.5938 26.0157 31.6406 26.0157 31.6406C22.2188 36.4219 23.0625 43.3125 27.9844 46.9688C32.7657 50.625 39.7969 49.7812 43.5938 45.1406C41.3438 45.9844 39.2344 46.125 37.2657 44.7187Z" fill="white"></path><path d="M29.25 42.75C29.949 42.75 30.5156 42.1834 30.5156 41.4844C30.5156 40.7854 29.949 40.2188 29.25 40.2188C28.551 40.2188 27.9844 40.7854 27.9844 41.4844C27.9844 42.1834 28.551 42.75 29.25 42.75Z" fill="#ED4C5C"></path><path d="M41.3438 50.9063C39.0938 52.4531 36.8438 51.3281 33.8906 53.2969C32.625 54.1406 31.7813 56.9531 30.5156 57.7969C27.5625 59.7656 25.1719 57.375 25.1719 57.375C28.5469 62.4375 35.5781 63.7031 40.6406 60.3281C45.7031 56.9531 47.1094 50.2031 43.7344 45.1406C43.875 47.5312 43.3125 49.5 41.3438 50.9063Z" fill="white"></path><path d="M35.1562 56.6719C35.5781 56.1094 36.4218 55.9687 36.9843 56.3906C37.5468 56.8125 37.6874 57.6563 37.2656 58.2188C36.8437 58.7813 35.9999 58.9219 35.4374 58.5C34.8749 58.0781 34.7343 57.2344 35.1562 56.6719Z" fill="#ED4C5C"></path><path d="M48.5156 49.0781C49.2188 51.6094 47.5313 53.4375 48.5156 56.8125C48.9375 58.2187 51.3281 59.9062 51.75 61.4531C52.7344 64.8281 49.6406 66.2344 49.6406 66.2344C55.5469 64.5469 58.9219 58.5 57.2344 52.7344C55.5469 46.9687 49.3594 43.5937 43.4531 45.2812C45.9844 45.7031 47.8125 46.6875 48.5156 49.0781Z" fill="white"></path><path d="M52.8749 56.5312C52.4531 55.9687 52.5937 55.125 53.1562 54.7031C53.7187 54.2812 54.5624 54.4219 54.9843 54.9844C55.4062 55.5469 55.2656 56.3906 54.7031 56.8125C53.9999 57.375 53.2968 57.2344 52.8749 56.5312Z" fill="#ED4C5C"></path><path d="M48.9375 41.7656C51.75 41.9063 52.875 44.0156 56.3906 44.1562C57.9375 44.1562 60.3281 42.4688 61.875 42.4688C65.3906 42.6094 65.8125 45.8437 65.8125 45.8437C66.0937 39.7969 61.1719 34.7344 55.125 34.5938C48.9375 34.4531 43.875 39.0937 43.5938 45.1406C44.8594 43.0312 46.5469 41.625 48.9375 41.7656Z" fill="white"></path><path d="M58.2187 40.0781C57.5156 40.3594 56.8125 39.9375 56.5312 39.2344C56.25 38.5312 56.6718 37.8281 57.375 37.5469C58.0781 37.2656 58.7812 37.6875 59.0625 38.3906C59.3437 39.0937 58.9218 39.9375 58.2187 40.0781Z" fill="#ED4C5C"></path></svg>