<svg xmlns="http://www.w3.org/2000/svg" width="90" height="90" viewBox="0 0 90 90" fill="none"><path d="M45 87.1875C68.2995 87.1875 87.1875 68.2995 87.1875 45C87.1875 21.7005 68.2995 2.8125 45 2.8125C21.7005 2.8125 2.8125 21.7005 2.8125 45C2.8125 68.2995 21.7005 87.1875 45 87.1875Z" fill="#ED4C5C"></path><path d="M30.9375 39.9375L42.1875 47.8125L37.9688 34.875L49.2188 26.7188H35.2969L30.9375 14.0625L26.7188 26.7188H12.6562L23.9062 34.875L19.6875 47.8125L30.9375 39.9375ZM49.6406 49.6406L46.4062 50.3438L49.5 51.6094V54.8438L51.6094 52.4531L54.7031 53.5781L52.875 50.9062L54.8438 48.375L51.6094 49.0781L49.6406 46.4062V49.6406ZM54.4219 40.0781L52.0312 42.1875L55.2656 41.9062L56.6719 45L57.2344 41.7656L60.4688 41.4844L57.6562 39.7969L58.3594 36.5625L55.9688 38.6719L53.1562 36.9844L54.4219 40.0781ZM55.2656 29.1094L56.25 32.3438L57.2344 29.25H60.4688L57.9375 27.2812L58.9219 24.0469L56.25 26.0156L53.7188 23.9062L54.7031 27.1406L52.0312 28.9688L55.2656 29.1094ZM49.6406 17.8594V21.0938L51.6094 18.4219L54.8438 19.125L52.875 16.5938L54.7031 13.9219L51.6094 15.1875L49.5 12.6562V15.8906L46.4062 17.1562L49.6406 17.8594Z" fill="#FFE62E"></path></svg>