<svg xmlns="http://www.w3.org/2000/svg" width="90" height="90" viewBox="0 0 90 90" fill="none"><path d="M78.75 19.6875H45V28.125H83.6719C82.4062 25.1719 80.7188 22.2188 78.75 19.6875Z" fill="#ED4C5C"></path><path d="M86.3438 53.4375C86.9062 50.7656 87.1875 47.9531 87.1875 45H2.8125C2.8125 47.9531 3.09375 50.7656 3.65625 53.4375H86.3438Z" fill="#F9F9F9"></path><path d="M45 2.8125V11.25H70.3125C63.2812 5.90625 54.5625 2.8125 45 2.8125Z" fill="#ED4C5C"></path><path d="M45 19.6875H78.75C76.3594 16.4531 73.5469 13.6406 70.3125 11.25H45V19.6875ZM83.6719 28.125H45V36.5625H86.3438C85.7813 33.6094 84.7969 30.7969 83.6719 28.125Z" fill="#F9F9F9"></path><path d="M45 36.5625V45H87.1875C87.1875 42.0469 86.9063 39.2344 86.3438 36.5625H45ZM6.32813 61.875H83.6719C84.7969 59.2031 85.7813 56.3906 86.3438 53.4375H3.65625C4.21875 56.3906 5.20313 59.2031 6.32813 61.875Z" fill="#ED4C5C"></path><path d="M11.25 70.3125H78.75C80.7188 67.7812 82.4062 64.8281 83.6719 61.875H6.32812C7.59375 64.8281 9.28125 67.7812 11.25 70.3125Z" fill="#F9F9F9"></path><path d="M11.25 70.3125C13.6406 73.5469 16.4531 76.3594 19.6875 78.75H70.3125C73.5469 76.3594 76.3594 73.5469 78.75 70.3125H11.25Z" fill="#ED4C5C"></path><path d="M19.6875 78.75C26.7188 84.0938 35.4375 87.1875 45 87.1875C54.5625 87.1875 63.2812 84.0938 70.3125 78.75H19.6875Z" fill="#F9F9F9"></path><path d="M45 2.8125C21.6562 2.8125 2.8125 21.6562 2.8125 45H45V2.8125Z" fill="#2A5F9E"></path><path d="M27.9844 36C23.7656 36 20.25 32.4844 20.25 28.125C20.25 23.7656 23.7656 20.25 27.9844 20.25C29.6719 20.25 31.0781 20.8125 32.3438 21.6562C30.5156 19.5469 27.9844 18.2812 25.0312 18.2812C19.6875 18.2812 15.4688 22.6406 15.4688 28.125C15.4688 33.6094 19.8281 37.9688 25.0312 37.9688C27.9844 37.9688 30.5156 36.7031 32.3438 34.5938C31.0781 35.4375 29.5312 36 27.9844 36ZM36.5625 26.4375L37.5469 23.9062L37.2656 26.5781L39.2344 24.75L37.8281 27.1406L40.3594 26.2969L38.1094 27.7031L40.7812 28.125L38.1094 28.5469L40.3594 29.9531L37.8281 29.1094L39.2344 31.5L37.2656 29.6719L37.5469 32.3438L36.5625 29.8125L35.5781 32.3438L35.8594 29.6719L33.8906 31.5L35.2969 29.1094L32.7656 29.9531L35.0156 28.5469L32.3438 28.125L35.0156 27.7031L32.7656 26.2969L35.2969 27.1406L33.8906 24.75L35.8594 26.5781L35.5781 23.9062L36.5625 26.4375Z" fill="#FFE62E"></path></svg>