<svg xmlns="http://www.w3.org/2000/svg" width="90" height="90" viewBox="0 0 90 90" fill="none"><path d="M45 87.1875C68.2995 87.1875 87.1875 68.2995 87.1875 45C87.1875 21.7005 68.2995 2.8125 45 2.8125C21.7005 2.8125 2.8125 21.7005 2.8125 45C2.8125 68.2995 21.7005 87.1875 45 87.1875Z" fill="#00785E"></path><path d="M52.7344 42.75C51.75 43.0312 50.7656 43.4531 49.9219 44.0156C50.0625 43.1719 50.2031 42.3281 50.2031 41.3437C50.2031 36.2812 45.1406 30.9375 45.1406 30.9375C45.1406 30.9375 40.0781 36.4219 40.0781 41.3437C40.0781 42.3281 40.2188 43.1719 40.3594 44.0156C39.5156 43.4531 38.5312 42.8906 37.4062 42.6094C31.9219 41.0625 25.4531 44.4375 25.4531 44.4375C25.4531 44.4375 29.9531 51.4688 35.4375 53.0156C40.0781 54.2813 43.5937 50.7656 44.8594 50.3437H45.4219C46.8281 50.9062 50.2031 54.2813 54.8438 53.0156C60.3281 51.4688 64.8281 44.4375 64.8281 44.4375C64.8281 44.4375 58.0781 41.2031 52.7344 42.75ZM34.7344 67.5C37.8281 69.3281 41.2031 70.3125 45 70.3125C48.7969 70.3125 52.1719 69.3281 55.2656 67.5H34.7344ZM28.5469 61.875C29.25 62.8594 30.0938 63.8438 31.0781 64.6875H58.9219C59.9062 63.8438 60.75 62.8594 61.4531 61.875H28.5469Z" fill="white"></path><path d="M45 25.4531L48.5156 28.125L47.1094 23.9062L50.625 21.2344L46.4062 21.0938L45 16.875L43.5937 21.0938L39.375 21.2344L42.8906 23.9062L41.4844 28.125L45 25.4531ZM34.7344 27.1406L37.2656 27.5625L35.2969 25.7344L36.2812 23.2031L34.0312 24.6094L32.0625 22.7813L32.625 25.3125L30.5156 26.5781L33.0469 27L33.6094 29.6719L34.7344 27.1406ZM27.1406 34.7344L29.6719 33.6094L27 33.0469L26.5781 30.5156L25.3125 32.625L22.7812 32.0625L24.6094 34.0313L23.2031 36.2812L25.7344 35.2969L27.5625 37.2656L27.1406 34.7344ZM62.8594 34.7344L62.4375 37.2656L64.2656 35.2969L66.7969 36.2812L65.3906 34.0313L67.2187 32.0625L64.6875 32.625L63.4219 30.5156L63 33.0469L60.3281 33.6094L62.8594 34.7344ZM55.2656 27.1406L56.3906 29.6719L56.9531 27L59.4844 26.5781L57.375 25.3125L57.9375 22.7813L55.9687 24.6094L53.7188 23.2031L54.7031 25.7344L52.7344 27.5625L55.2656 27.1406Z" fill="#FFE62E"></path><path d="M65.1094 56.25H50.0625C46.6875 56.25 46.4062 53.8594 46.4062 53.4375H43.5937C43.5937 53.7188 43.4531 56.25 39.9375 56.25H24.8906C25.3125 57.2344 25.7344 58.2188 26.2969 59.0625H39.9375C42.4687 59.0625 44.0156 58.2187 45 57.0937C45.9844 58.2187 47.5312 59.0625 50.0625 59.0625H63.7031C64.2656 58.2188 64.6875 57.2344 65.1094 56.25Z" fill="white"></path></svg>